<svg xmlns="http://www.w3.org/2000/svg" xmlns:xlink="http://www.w3.org/1999/xlink" width="960" height="1174" contentScriptType="application/ecmascript" contentStyleType="text/css" style="width:960px;height:1174px" preserveAspectRatio="none" version="1.1" viewBox="0 0 960 1174" zoomAndPan="magnify"><defs><filter id="fzmnu8cr7jimo" width="300%" height="300%" x="-1" y="-1"><feGaussianBlur result="blurOut" stdDeviation="2"/><feColorMatrix in="blurOut" result="blurOut2" type="matrix" values="0 0 0 0 0 0 0 0 0 0 0 0 0 0 0 0 0 0 .4 0"/><feOffset dx="4" dy="4" in="blurOut2" result="blurOut3"/><feBlend in="SourceGraphic" in2="blurOut3" mode="normal"/></filter></defs><g><ellipse cx="374" cy="20" fill="#000" filter="url(#fzmnu8cr7jimo)" rx="10" ry="10" style="stroke:none;stroke-width:1"/><rect style="stroke:#a80036;stroke-width:1.5" width="157" height="33.969" x="295.5" y="50" fill="#FEFECE" filter="url(#fzmnu8cr7jimo)" rx="12.5" ry="12.5"/><text x="305.5" y="71.139" fill="#000" font-family="sans-serif" font-size="12" lengthAdjust="spacingAndGlyphs" textLength="137">MachineSet controller</text><rect style="stroke:#a80036;stroke-width:1.5" width="378" height="33.969" x="185" y="147.969" fill="#FEFECE" filter="url(#fzmnu8cr7jimo)" rx="12.5" ry="12.5"/><text x="195" y="169.107" fill="#000" font-family="sans-serif" font-size="12" lengthAdjust="spacingAndGlyphs" textLength="358">MachineDeployment controller enqueues a Reconcile call</text><rect style="stroke:#a80036;stroke-width:1.5" width="235" height="33.969" x="256.5" y="201.938" fill="#FEFECE" filter="url(#fzmnu8cr7jimo)" rx="12.5" ry="12.5"/><text x="266.5" y="223.076" fill="#000" font-family="sans-serif" font-size="12" lengthAdjust="spacingAndGlyphs" textLength="215">List all MachineSets in namespace</text><polygon fill="#FEFECE" points="83 355.617 350 355.617 362 367.617 350 379.617 83 379.617 71 367.617 83 355.617" filter="url(#fzmnu8cr7jimo)" style="stroke:#a80036;stroke-width:1.5"/><text x="220.5" y="389.827" fill="#000" font-family="sans-serif" font-size="11" lengthAdjust="spacingAndGlyphs" textLength="20">yes</text><text x="83" y="371.425" fill="#000" font-family="sans-serif" font-size="11" lengthAdjust="spacingAndGlyphs" textLength="267">MachineSet Owned by this MachineDeployment</text><rect style="stroke:#a80036;stroke-width:1.5" width="86" height="33.969" x="173.5" y="411.327" fill="#ADD8E6" filter="url(#fzmnu8cr7jimo)" rx="12.5" ry="12.5"/><text x="183.5" y="432.466" fill="#000" font-family="sans-serif" font-size="12" lengthAdjust="spacingAndGlyphs" textLength="66">Add to List</text><polygon fill="#FEFECE" points="394 355.617 615 355.617 627 367.617 615 379.617 394 379.617 382 367.617 394 355.617" filter="url(#fzmnu8cr7jimo)" style="stroke:#a80036;stroke-width:1.5"/><text x="508.5" y="389.827" fill="#000" font-family="sans-serif" font-size="11" lengthAdjust="spacingAndGlyphs" textLength="20">yes</text><text x="394" y="371.425" fill="#000" font-family="sans-serif" font-size="11" lengthAdjust="spacingAndGlyphs" textLength="221">Not Owned By Any MachineDeployment</text><rect style="stroke:#a80036;stroke-width:1.5" width="134" height="33.969" x="437.5" y="411.327" fill="#FEFECE" filter="url(#fzmnu8cr7jimo)" rx="12.5" ry="12.5"/><text x="447.5" y="432.466" fill="#000" font-family="sans-serif" font-size="12" lengthAdjust="spacingAndGlyphs" textLength="114">Adopt MachineSet</text><rect style="stroke:#a80036;stroke-width:1.5" width="86" height="33.969" x="461.5" y="480.296" fill="#ADD8E6" filter="url(#fzmnu8cr7jimo)" rx="12.5" ry="12.5"/><text x="471.5" y="501.435" fill="#000" font-family="sans-serif" font-size="12" lengthAdjust="spacingAndGlyphs" textLength="66">Add to List</text><polygon fill="#FEFECE" points="226.5 299.906 521.5 299.906 533.5 311.906 521.5 323.906 226.5 323.906 214.5 311.906 226.5 299.906" filter="url(#fzmnu8cr7jimo)" style="stroke:#a80036;stroke-width:1.5"/><text x="378" y="334.117" fill="#000" font-family="sans-serif" font-size="11" lengthAdjust="spacingAndGlyphs" textLength="20">yes</text><text x="226.5" y="315.714" fill="#000" font-family="sans-serif" font-size="11" lengthAdjust="spacingAndGlyphs" textLength="295">MachineSet matches MachineDeployment&apos;s selector</text><polygon fill="#FEFECE" points="374 554.265 386 566.265 374 578.265 362 566.265 374 554.265" filter="url(#fzmnu8cr7jimo)" style="stroke:#a80036;stroke-width:1.5"/><polygon fill="#FEFECE" points="374 255.906 386 267.906 374 279.906 362 267.906 374 255.906" filter="url(#fzmnu8cr7jimo)" style="stroke:#a80036;stroke-width:1.5"/><polygon fill="#FEFECE" points="291.5 598.265 456.5 598.265 468.5 610.265 456.5 622.265 291.5 622.265 279.5 610.265 291.5 598.265" filter="url(#fzmnu8cr7jimo)" style="stroke:#a80036;stroke-width:1.5"/><text x="291.5" y="614.073" fill="#000" font-family="sans-serif" font-size="11" lengthAdjust="spacingAndGlyphs" textLength="165">More MachineSets) then (yes</text><polygon fill="#FEFECE" points="353 657.265 395 657.265 407 669.265 395 681.265 353 681.265 341 669.265 353 657.265" filter="url(#fzmnu8cr7jimo)" style="stroke:#a80036;stroke-width:1.5"/><text x="353" y="673.073" fill="#000" font-family="sans-serif" font-size="11" lengthAdjust="spacingAndGlyphs" textLength="42">Paused</text><text x="321" y="666.67" fill="#000" font-family="sans-serif" font-size="11" lengthAdjust="spacingAndGlyphs" textLength="20">yes</text><rect style="stroke:#a80036;stroke-width:1.5" width="164" height="33.969" x="10" y="691.265" fill="#ADD8E6" filter="url(#fzmnu8cr7jimo)" rx="12.5" ry="12.5"/><text x="20" y="712.403" fill="#000" font-family="sans-serif" font-size="12" lengthAdjust="spacingAndGlyphs" textLength="144">Update status and exit</text><polygon fill="#FEFECE" points="556 691.265 756 691.265 768 703.265 756 715.265 556 715.265 544 703.265 556 691.265" filter="url(#fzmnu8cr7jimo)" style="stroke:#a80036;stroke-width:1.5"/><text x="556" y="707.073" fill="#000" font-family="sans-serif" font-size="11" lengthAdjust="spacingAndGlyphs" textLength="200">RollingUpdate Deployment Strategy</text><text x="524" y="700.67" fill="#000" font-family="sans-serif" font-size="11" lengthAdjust="spacingAndGlyphs" textLength="20">yes</text><text x="768" y="700.67" fill="#000" font-family="sans-serif" font-size="11" lengthAdjust="spacingAndGlyphs" textLength="14">no</text><rect style="stroke:#a80036;stroke-width:1.5" width="185" height="33.969" x="384" y="725.265" fill="#FEFECE" filter="url(#fzmnu8cr7jimo)" rx="12.5" ry="12.5"/><text x="394" y="746.403" fill="#000" font-family="sans-serif" font-size="12" lengthAdjust="spacingAndGlyphs" textLength="165">Select newest MachineSet</text><polygon fill="#FEFECE" points="318 779.233 421 779.233 433 791.233 421 803.233 318 803.233 306 791.233 318 779.233" filter="url(#fzmnu8cr7jimo)" style="stroke:#a80036;stroke-width:1.5"/><text x="373.5" y="813.444" fill="#000" font-family="sans-serif" font-size="11" lengthAdjust="spacingAndGlyphs" textLength="20">yes</text><text x="318" y="795.042" fill="#000" font-family="sans-serif" font-size="11" lengthAdjust="spacingAndGlyphs" textLength="103">Too Many replicas</text><rect style="stroke:#a80036;stroke-width:1.5" width="169" height="33.969" x="285" y="836.038" fill="#ADD8E6" filter="url(#fzmnu8cr7jimo)" rx="12.5" ry="12.5"/><text x="295" y="857.177" fill="#000" font-family="sans-serif" font-size="12" lengthAdjust="spacingAndGlyphs" textLength="149">Scale machineSet down</text><polygon fill="#FEFECE" points="488 779.233 604 779.233 616 791.233 604 803.233 488 803.233 476 791.233 488 779.233" filter="url(#fzmnu8cr7jimo)" style="stroke:#a80036;stroke-width:1.5"/><text x="488" y="795.042" fill="#000" font-family="sans-serif" font-size="11" lengthAdjust="spacingAndGlyphs" textLength="116">Not Enough Replicas</text><rect style="stroke:#a80036;stroke-width:1.5" width="144" height="33.969" x="474" y="823.233" fill="#ADD8E6" filter="url(#fzmnu8cr7jimo)" rx="12.5" ry="12.5"/><text x="484" y="844.372" fill="#000" font-family="sans-serif" font-size="12" lengthAdjust="spacingAndGlyphs" textLength="124">Create new replicas</text><polygon fill="#FEFECE" points="216 910.007 438 910.007 450 922.007 438 934.007 216 934.007 204 922.007 216 910.007" filter="url(#fzmnu8cr7jimo)" style="stroke:#a80036;stroke-width:1.5"/><text x="331" y="944.217" fill="#000" font-family="sans-serif" font-size="11" lengthAdjust="spacingAndGlyphs" textLength="20">yes</text><text x="216" y="925.815" fill="#000" font-family="sans-serif" font-size="11" lengthAdjust="spacingAndGlyphs" textLength="222">Old MachineSet Replicas are Unhealthy</text><rect style="stroke:#a80036;stroke-width:1.5" width="194" height="33.969" x="230" y="965.717" fill="#ADD8E6" filter="url(#fzmnu8cr7jimo)" rx="12.5" ry="12.5"/><text x="240" y="986.856" fill="#000" font-family="sans-serif" font-size="12" lengthAdjust="spacingAndGlyphs" textLength="174">Cleanup Unhealthy Replicas</text><polygon fill="#FEFECE" points="482 910.007 687 910.007 699 922.007 687 934.007 482 934.007 470 922.007 482 910.007" filter="url(#fzmnu8cr7jimo)" style="stroke:#a80036;stroke-width:1.5"/><text x="588.5" y="944.217" fill="#000" font-family="sans-serif" font-size="11" lengthAdjust="spacingAndGlyphs" textLength="20">yes</text><text x="482" y="925.815" fill="#000" font-family="sans-serif" font-size="11" lengthAdjust="spacingAndGlyphs" textLength="205">New MachineSets Replicas available</text><rect style="stroke:#a80036;stroke-width:1.5" width="168" height="33.969" x="500.5" y="965.717" fill="#ADD8E6" filter="url(#fzmnu8cr7jimo)" rx="12.5" ry="12.5"/><text x="510.5" y="986.856" fill="#000" font-family="sans-serif" font-size="12" lengthAdjust="spacingAndGlyphs" textLength="148">Scale MachineSet down</text><rect style="stroke:#a80036;stroke-width:1.5" width="133" height="33.969" x="769" y="725.265" fill="pink" filter="url(#fzmnu8cr7jimo)" rx="12.5" ry="12.5"/><text x="779" y="746.403" fill="#000" font-family="sans-serif" font-size="12" lengthAdjust="spacingAndGlyphs" textLength="113">Unknown strategy</text><polygon fill="#FEFECE" points="656 1025.686 668 1037.686 656 1049.686 644 1037.686 656 1025.686" filter="url(#fzmnu8cr7jimo)" style="stroke:#a80036;stroke-width:1.5"/><polygon fill="#FEFECE" points="374 1055.686 386 1067.686 374 1079.686 362 1067.686 374 1055.686" filter="url(#fzmnu8cr7jimo)" style="stroke:#a80036;stroke-width:1.5"/><polygon fill="#FEFECE" points="374 103.969 386 115.969 374 127.969 362 115.969 374 103.969" filter="url(#fzmnu8cr7jimo)" style="stroke:#a80036;stroke-width:1.5"/><polygon fill="#FEFECE" points="235 1099.686 513 1099.686 525 1111.686 513 1123.686 235 1123.686 223 1111.686 235 1099.686" filter="url(#fzmnu8cr7jimo)" style="stroke:#a80036;stroke-width:1.5"/><text x="235" y="1115.494" fill="#000" font-family="sans-serif" font-size="11" lengthAdjust="spacingAndGlyphs" textLength="278">More updates to MachineDeployments) then (yes</text><ellipse cx="374" cy="1153.686" fill="none" filter="url(#fzmnu8cr7jimo)" rx="10" ry="10" style="stroke:#000;stroke-width:1"/><ellipse cx="374.5" cy="1154.186" fill="#000" filter="url(#fzmnu8cr7jimo)" rx="6" ry="6" style="stroke:none;stroke-width:1"/><line style="stroke:#a80036;stroke-width:1.5" x1="374" x2="374" y1="30" y2="50"/><polygon fill="#A80036" points="370 40 374 50 378 40 374 44" style="stroke:#a80036;stroke-width:1"/><line style="stroke:#a80036;stroke-width:1.5" x1="374" x2="374" y1="181.938" y2="201.938"/><polygon fill="#A80036" points="370 191.938 374 201.938 378 191.938 374 195.938" style="stroke:#a80036;stroke-width:1"/><line style="stroke:#a80036;stroke-width:1.5" x1="504.5" x2="504.5" y1="445.296" y2="480.296"/><polygon fill="#A80036" points="500.5 470.296 504.5 480.296 508.5 470.296 504.5 474.296" style="stroke:#a80036;stroke-width:1"/><line style="stroke:#a80036;stroke-width:1.5" x1="216.5" x2="216.5" y1="379.617" y2="411.327"/><polygon fill="#A80036" points="212.5 401.327 216.5 411.327 220.5 401.327 216.5 405.327" style="stroke:#a80036;stroke-width:1"/><line style="stroke:#a80036;stroke-width:1.5" x1="216.5" x2="216.5" y1="445.296" y2="534.265"/><polygon fill="#A80036" points="212.5 524.265 216.5 534.265 220.5 524.265 216.5 528.265" style="stroke:#a80036;stroke-width:1"/><line style="stroke:#a80036;stroke-width:1.5" x1="504.5" x2="504.5" y1="379.617" y2="411.327"/><polygon fill="#A80036" points="500.5 401.327 504.5 411.327 508.5 401.327 504.5 405.327" style="stroke:#a80036;stroke-width:1"/><line style="stroke:#a80036;stroke-width:1.5" x1="504.5" x2="504.5" y1="514.265" y2="534.265"/><polygon fill="#A80036" points="500.5 524.265 504.5 534.265 508.5 524.265 504.5 528.265" style="stroke:#a80036;stroke-width:1"/><line style="stroke:#a80036;stroke-width:1.5" x1="362" x2="382" y1="367.617" y2="367.617"/><polygon fill="#A80036" points="372 363.617 382 367.617 372 371.617 376 367.617" style="stroke:#a80036;stroke-width:1"/><line style="stroke:#a80036;stroke-width:1.5" x1="374" x2="374" y1="323.906" y2="340.617"/><line style="stroke:#a80036;stroke-width:1.5" x1="374" x2="216.5" y1="340.617" y2="340.617"/><line style="stroke:#a80036;stroke-width:1.5" x1="216.5" x2="216.5" y1="340.617" y2="355.617"/><polygon fill="#A80036" points="212.5 345.617 216.5 355.617 220.5 345.617 216.5 349.617" style="stroke:#a80036;stroke-width:1"/><line style="stroke:#a80036;stroke-width:1.5" x1="627" x2="662" y1="367.617" y2="367.617"/><line style="stroke:#a80036;stroke-width:1.5" x1="662" x2="662" y1="367.617" y2="534.265"/><polygon fill="#A80036" points="658 524.265 662 534.265 666 524.265 662 528.265" style="stroke:#a80036;stroke-width:1"/><line style="stroke:#a80036;stroke-width:1.5" x1="216.5" x2="662" y1="534.265" y2="534.265"/><line style="stroke:#a80036;stroke-width:1.5" x1="533.5" x2="687" y1="311.906" y2="311.906"/><polygon fill="#A80036" points="683 449.394 687 459.394 691 449.394 687 453.394" style="stroke:#a80036;stroke-width:1.5"/><line style="stroke:#a80036;stroke-width:1.5" x1="687" x2="687" y1="311.906" y2="566.265"/><line style="stroke:#a80036;stroke-width:1.5" x1="687" x2="386" y1="566.265" y2="566.265"/><polygon fill="#A80036" points="396 562.265 386 566.265 396 570.265 392 566.265" style="stroke:#a80036;stroke-width:1"/><line style="stroke:#a80036;stroke-width:1.5" x1="374" x2="374" y1="534.265" y2="554.265"/><polygon fill="#A80036" points="370 544.265 374 554.265 378 544.265 374 548.265" style="stroke:#a80036;stroke-width:1"/><line style="stroke:#a80036;stroke-width:1.5" x1="374" x2="374" y1="279.906" y2="299.906"/><polygon fill="#A80036" points="370 289.906 374 299.906 378 289.906 374 293.906" style="stroke:#a80036;stroke-width:1"/><line style="stroke:#a80036;stroke-width:1.5" x1="468.5" x2="711" y1="610.265" y2="610.265"/><polygon fill="#A80036" points="707 469.394 711 459.394 715 469.394 711 465.394" style="stroke:#a80036;stroke-width:1.5"/><line style="stroke:#a80036;stroke-width:1.5" x1="711" x2="711" y1="267.906" y2="610.265"/><line style="stroke:#a80036;stroke-width:1.5" x1="711" x2="386" y1="267.906" y2="267.906"/><polygon fill="#A80036" points="396 263.906 386 267.906 396 271.906 392 267.906" style="stroke:#a80036;stroke-width:1"/><line style="stroke:#a80036;stroke-width:1.5" x1="374" x2="374" y1="578.265" y2="598.265"/><polygon fill="#A80036" points="370 588.265 374 598.265 378 588.265 374 592.265" style="stroke:#a80036;stroke-width:1"/><line style="stroke:#a80036;stroke-width:1.5" x1="374" x2="374" y1="235.906" y2="255.906"/><polygon fill="#A80036" points="370 245.906 374 255.906 378 245.906 374 249.906" style="stroke:#a80036;stroke-width:1"/><line style="stroke:#a80036;stroke-width:1.5" x1="369.5" x2="369.5" y1="803.233" y2="836.038"/><polygon fill="#A80036" points="365.5 826.038 369.5 836.038 373.5 826.038 369.5 830.038" style="stroke:#a80036;stroke-width:1"/><line style="stroke:#a80036;stroke-width:1.5" x1="369.5" x2="369.5" y1="870.007" y2="890.007"/><polygon fill="#A80036" points="365.5 880.007 369.5 890.007 373.5 880.007 369.5 884.007" style="stroke:#a80036;stroke-width:1"/><line style="stroke:#a80036;stroke-width:1.5" x1="546" x2="546" y1="803.233" y2="823.233"/><polygon fill="#A80036" points="542 813.233 546 823.233 550 813.233 546 817.233" style="stroke:#a80036;stroke-width:1"/><line style="stroke:#a80036;stroke-width:1.5" x1="546" x2="546" y1="857.202" y2="890.007"/><polygon fill="#A80036" points="542 880.007 546 890.007 550 880.007 546 884.007" style="stroke:#a80036;stroke-width:1"/><line style="stroke:#a80036;stroke-width:1.5" x1="433" x2="476" y1="791.233" y2="791.233"/><polygon fill="#A80036" points="466 787.233 476 791.233 466 795.233 470 791.233" style="stroke:#a80036;stroke-width:1"/><line style="stroke:#a80036;stroke-width:1.5" x1="476.5" x2="476.5" y1="759.233" y2="764.233"/><line style="stroke:#a80036;stroke-width:1.5" x1="476.5" x2="369.5" y1="764.233" y2="764.233"/><line style="stroke:#a80036;stroke-width:1.5" x1="369.5" x2="369.5" y1="764.233" y2="779.233"/><polygon fill="#A80036" points="365.5 769.233 369.5 779.233 373.5 769.233 369.5 773.233" style="stroke:#a80036;stroke-width:1"/><line style="stroke:#a80036;stroke-width:1.5" x1="616" x2="653" y1="791.233" y2="791.233"/><line style="stroke:#a80036;stroke-width:1.5" x1="653" x2="653" y1="791.233" y2="890.007"/><polygon fill="#A80036" points="649 880.007 653 890.007 657 880.007 653 884.007" style="stroke:#a80036;stroke-width:1"/><line style="stroke:#a80036;stroke-width:1.5" x1="369.5" x2="653" y1="890.007" y2="890.007"/><line style="stroke:#a80036;stroke-width:1.5" x1="327" x2="327" y1="934.007" y2="965.717"/><polygon fill="#A80036" points="323 955.717 327 965.717 331 955.717 327 959.717" style="stroke:#a80036;stroke-width:1"/><line style="stroke:#a80036;stroke-width:1.5" x1="327" x2="327" y1="999.686" y2="1019.686"/><polygon fill="#A80036" points="323 1009.686 327 1019.686 331 1009.686 327 1013.686" style="stroke:#a80036;stroke-width:1"/><line style="stroke:#a80036;stroke-width:1.5" x1="584.5" x2="584.5" y1="934.007" y2="965.717"/><polygon fill="#A80036" points="580.5 955.717 584.5 965.717 588.5 955.717 584.5 959.717" style="stroke:#a80036;stroke-width:1"/><line style="stroke:#a80036;stroke-width:1.5" x1="584.5" x2="584.5" y1="999.686" y2="1019.686"/><polygon fill="#A80036" points="580.5 1009.686 584.5 1019.686 588.5 1009.686 584.5 1013.686" style="stroke:#a80036;stroke-width:1"/><line style="stroke:#a80036;stroke-width:1.5" x1="450" x2="470" y1="922.007" y2="922.007"/><polygon fill="#A80036" points="460 918.007 470 922.007 460 926.007 464 922.007" style="stroke:#a80036;stroke-width:1"/><line style="stroke:#a80036;stroke-width:1.5" x1="476.5" x2="476.5" y1="890.007" y2="895.007"/><line style="stroke:#a80036;stroke-width:1.5" x1="476.5" x2="327" y1="895.007" y2="895.007"/><line style="stroke:#a80036;stroke-width:1.5" x1="327" x2="327" y1="895.007" y2="910.007"/><polygon fill="#A80036" points="323 900.007 327 910.007 331 900.007 327 904.007" style="stroke:#a80036;stroke-width:1"/><line style="stroke:#a80036;stroke-width:1.5" x1="699" x2="734" y1="922.007" y2="922.007"/><line style="stroke:#a80036;stroke-width:1.5" x1="734" x2="734" y1="922.007" y2="1019.686"/><polygon fill="#A80036" points="730 1009.686 734 1019.686 738 1009.686 734 1013.686" style="stroke:#a80036;stroke-width:1"/><line style="stroke:#a80036;stroke-width:1.5" x1="327" x2="734" y1="1019.686" y2="1019.686"/><line style="stroke:#a80036;stroke-width:1.5" x1="544" x2="476.5" y1="703.265" y2="703.265"/><line style="stroke:#a80036;stroke-width:1.5" x1="476.5" x2="476.5" y1="703.265" y2="725.265"/><polygon fill="#A80036" points="472.5 715.265 476.5 725.265 480.5 715.265 476.5 719.265" style="stroke:#a80036;stroke-width:1"/><line style="stroke:#a80036;stroke-width:1.5" x1="768" x2="835.5" y1="703.265" y2="703.265"/><line style="stroke:#a80036;stroke-width:1.5" x1="835.5" x2="835.5" y1="703.265" y2="725.265"/><polygon fill="#A80036" points="831.5 715.265 835.5 725.265 839.5 715.265 835.5 719.265" style="stroke:#a80036;stroke-width:1"/><line style="stroke:#a80036;stroke-width:1.5" x1="476.5" x2="476.5" y1="1019.686" y2="1037.686"/><line style="stroke:#a80036;stroke-width:1.5" x1="476.5" x2="644" y1="1037.686" y2="1037.686"/><polygon fill="#A80036" points="634 1033.686 644 1037.686 634 1041.686 638 1037.686" style="stroke:#a80036;stroke-width:1"/><line style="stroke:#a80036;stroke-width:1.5" x1="835.5" x2="835.5" y1="759.233" y2="1037.686"/><line style="stroke:#a80036;stroke-width:1.5" x1="835.5" x2="668" y1="1037.686" y2="1037.686"/><polygon fill="#A80036" points="678 1033.686 668 1037.686 678 1041.686 674 1037.686" style="stroke:#a80036;stroke-width:1"/><line style="stroke:#a80036;stroke-width:1.5" x1="341" x2="92" y1="669.265" y2="669.265"/><line style="stroke:#a80036;stroke-width:1.5" x1="92" x2="92" y1="669.265" y2="691.265"/><polygon fill="#A80036" points="88 681.265 92 691.265 96 681.265 92 685.265" style="stroke:#a80036;stroke-width:1"/><line style="stroke:#a80036;stroke-width:1.5" x1="407" x2="656" y1="669.265" y2="669.265"/><line style="stroke:#a80036;stroke-width:1.5" x1="656" x2="656" y1="669.265" y2="691.265"/><polygon fill="#A80036" points="652 681.265 656 691.265 660 681.265 656 685.265" style="stroke:#a80036;stroke-width:1"/><line style="stroke:#a80036;stroke-width:1.5" x1="92" x2="92" y1="725.233" y2="1067.686"/><line style="stroke:#a80036;stroke-width:1.5" x1="92" x2="362" y1="1067.686" y2="1067.686"/><polygon fill="#A80036" points="352 1063.686 362 1067.686 352 1071.686 356 1067.686" style="stroke:#a80036;stroke-width:1"/><line style="stroke:#a80036;stroke-width:1.5" x1="656" x2="656" y1="1049.686" y2="1067.686"/><line style="stroke:#a80036;stroke-width:1.5" x1="656" x2="386" y1="1067.686" y2="1067.686"/><polygon fill="#A80036" points="396 1063.686 386 1067.686 396 1071.686 392 1067.686" style="stroke:#a80036;stroke-width:1"/><line style="stroke:#a80036;stroke-width:1.5" x1="374" x2="374" y1="622.265" y2="657.265"/><polygon fill="#A80036" points="370 647.265 374 657.265 378 647.265 374 651.265" style="stroke:#a80036;stroke-width:1"/><line style="stroke:#a80036;stroke-width:1.5" x1="374" x2="374" y1="127.969" y2="147.969"/><polygon fill="#A80036" points="370 137.969 374 147.969 378 137.969 374 141.969" style="stroke:#a80036;stroke-width:1"/><line style="stroke:#a80036;stroke-width:1.5" x1="525" x2="934" y1="1111.686" y2="1111.686"/><polygon fill="#A80036" points="930 637.28 934 627.28 938 637.28 934 633.28" style="stroke:#a80036;stroke-width:1.5"/><line style="stroke:#a80036;stroke-width:1.5" x1="934" x2="934" y1="115.969" y2="1111.686"/><line style="stroke:#a80036;stroke-width:1.5" x1="934" x2="386" y1="115.969" y2="115.969"/><polygon fill="#A80036" points="396 111.969 386 115.969 396 119.969 392 115.969" style="stroke:#a80036;stroke-width:1"/><line style="stroke:#a80036;stroke-width:1.5" x1="374" x2="374" y1="1079.686" y2="1099.686"/><polygon fill="#A80036" points="370 1089.686 374 1099.686 378 1089.686 374 1093.686" style="stroke:#a80036;stroke-width:1"/><line style="stroke:#a80036;stroke-width:1.5" x1="374" x2="374" y1="83.969" y2="103.969"/><polygon fill="#A80036" points="370 93.969 374 103.969 378 93.969 374 97.969" style="stroke:#a80036;stroke-width:1"/><line style="stroke:#a80036;stroke-width:1.5" x1="374" x2="374" y1="1123.686" y2="1143.686"/><polygon fill="#A80036" points="370 1133.686 374 1143.686 378 1133.686 374 1137.686" style="stroke:#a80036;stroke-width:1"/></g></svg>